<svg width="333.635mm" height="107.793683mm" viewBox="0 0 333.635 107.793683" xmlns="http://www.w3.org/2000/svg"><g id="svgGroup" stroke-linecap="round" fill-rule="evenodd" font-size="9pt" stroke="#000" stroke-width="0.25mm" fill="none" style="stroke:#000;stroke-width:0.25mm;fill:none"><path d="M 7.62 12.3 A 0.5 0.5 0 0 0 8.12 12.8 L 22.62 12.8 A 0.5 0.5 0 0 0 23.12 12.3 L 23.12 0.5 A 0.5 0.5 0 0 0 22.62 0 L 8.12 0 A 0.5 0.5 0 0 0 7.62 0.5 L 7.62 12.3 Z M 67.6275 13.2525 A 0.5 0.5 0 0 0 68.1275 13.7525 L 82.6275 13.7525 A 0.5 0.5 0 0 0 83.1275 13.2525 L 83.1275 1.4525 A 0.5 0.5 0 0 0 82.6275 0.9525 L 68.1275 0.9525 A 0.5 0.5 0 0 0 67.6275 1.4525 L 67.6275 13.2525 Z M 247.65 13.2525 A 0.5 0.5 0 0 0 248.15 13.7525 L 262.65 13.7525 A 0.5 0.5 0 0 0 263.15 13.2525 L 263.15 1.4525 A 0.5 0.5 0 0 0 262.65 0.9525 L 248.15 0.9525 A 0.5 0.5 0 0 0 247.65 1.4525 L 247.65 13.2525 Z M 29.5275 14.205 A 0.5 0.5 0 0 0 30.0275 14.705 L 44.5275 14.705 A 0.5 0.5 0 0 0 45.0275 14.205 L 45.0275 2.405 A 0.5 0.5 0 0 0 44.5275 1.905 L 30.0275 1.905 A 0.5 0.5 0 0 0 29.5275 2.405 L 29.5275 14.205 Z M 48.5775 14.205 A 0.5 0.5 0 0 0 49.0775 14.705 L 63.5775 14.705 A 0.5 0.5 0 0 0 64.0775 14.205 L 64.0775 2.405 A 0.5 0.5 0 0 0 63.5775 1.905 L 49.0775 1.905 A 0.5 0.5 0 0 0 48.5775 2.405 L 48.5775 14.205 Z M 266.7 14.205 A 0.5 0.5 0 0 0 267.2 14.705 L 281.7 14.705 A 0.5 0.5 0 0 0 282.2 14.205 L 282.2 2.405 A 0.5 0.5 0 0 0 281.7 1.905 L 267.2 1.905 A 0.5 0.5 0 0 0 266.7 2.405 L 266.7 14.205 Z M 285.75 14.205 A 0.5 0.5 0 0 0 286.25 14.705 L 300.75 14.705 A 0.5 0.5 0 0 0 301.25 14.205 L 301.25 2.405 A 0.5 0.5 0 0 0 300.75 1.905 L 286.25 1.905 A 0.5 0.5 0 0 0 285.75 2.405 L 285.75 14.205 Z M 304.8 14.205 A 0.5 0.5 0 0 0 305.3 14.705 L 319.8 14.705 A 0.5 0.5 0 0 0 320.3 14.205 L 320.3 2.405 A 0.5 0.5 0 0 0 319.8 1.905 L 305.3 1.905 A 0.5 0.5 0 0 0 304.8 2.405 L 304.8 14.205 Z M 3.81 31.35 A 0.5 0.5 0 0 0 4.31 31.85 L 18.81 31.85 A 0.5 0.5 0 0 0 19.31 31.35 L 19.31 19.55 A 0.5 0.5 0 0 0 18.81 19.05 L 4.31 19.05 A 0.5 0.5 0 0 0 3.81 19.55 L 3.81 31.35 Z M 244.7925 32.3025 A 0.5 0.5 0 0 0 245.2925 32.8025 L 259.7925 32.8025 A 0.5 0.5 0 0 0 260.2925 32.3025 L 260.2925 20.5025 A 0.5 0.5 0 0 0 259.7925 20.0025 L 245.2925 20.0025 A 0.5 0.5 0 0 0 244.7925 20.5025 L 244.7925 32.3025 Z M 30.48 33.255 A 0.5 0.5 0 0 0 30.98 33.755 L 45.48 33.755 A 0.5 0.5 0 0 0 45.98 33.255 L 45.98 21.455 A 0.5 0.5 0 0 0 45.48 20.955 L 30.98 20.955 A 0.5 0.5 0 0 0 30.48 21.455 L 30.48 33.255 Z M 54.2925 33.255 A 0.5 0.5 0 0 0 54.7925 33.755 L 69.2925 33.755 A 0.5 0.5 0 0 0 69.7925 33.255 L 69.7925 21.455 A 0.5 0.5 0 0 0 69.2925 20.955 L 54.7925 20.955 A 0.5 0.5 0 0 0 54.2925 21.455 L 54.2925 33.255 Z M 263.8425 33.255 A 0.5 0.5 0 0 0 264.3425 33.755 L 278.8425 33.755 A 0.5 0.5 0 0 0 279.3425 33.255 L 279.3425 21.455 A 0.5 0.5 0 0 0 278.8425 20.955 L 264.3425 20.955 A 0.5 0.5 0 0 0 263.8425 21.455 L 263.8425 33.255 Z M 282.8925 33.255 A 0.5 0.5 0 0 0 283.3925 33.755 L 297.8925 33.755 A 0.5 0.5 0 0 0 298.3925 33.255 L 298.3925 21.455 A 0.5 0.5 0 0 0 297.8925 20.955 L 283.3925 20.955 A 0.5 0.5 0 0 0 282.8925 21.455 L 282.8925 33.255 Z M 306.705 33.255 A 0.5 0.5 0 0 0 307.205 33.755 L 321.705 33.755 A 0.5 0.5 0 0 0 322.205 33.255 L 322.205 21.455 A 0.5 0.5 0 0 0 321.705 20.955 L 307.205 20.955 A 0.5 0.5 0 0 0 306.705 21.455 L 306.705 33.255 Z M 0 50.4 A 0.5 0.5 0 0 0 0.5 50.9 L 15 50.9 A 0.5 0.5 0 0 0 15.5 50.4 L 15.5 38.6 A 0.5 0.5 0 0 0 15 38.1 L 0.5 38.1 A 0.5 0.5 0 0 0 0 38.6 L 0 50.4 Z M 252.4125 52.305 A 0.5 0.5 0 0 0 252.9125 52.805 L 267.4125 52.805 A 0.5 0.5 0 0 0 267.9125 52.305 L 267.9125 40.505 A 0.5 0.5 0 0 0 267.4125 40.005 L 252.9125 40.005 A 0.5 0.5 0 0 0 252.4125 40.505 L 252.4125 52.305 Z M 271.4625 52.305 A 0.5 0.5 0 0 0 271.9625 52.805 L 286.4625 52.805 A 0.5 0.5 0 0 0 286.9625 52.305 L 286.9625 40.505 A 0.5 0.5 0 0 0 286.4625 40.005 L 271.9625 40.005 A 0.5 0.5 0 0 0 271.4625 40.505 L 271.4625 52.305 Z M 302.41875 52.305 A 0.5 0.5 0 0 0 302.91875 52.805 L 317.41875 52.805 A 0.5 0.5 0 0 0 317.91875 52.305 L 317.91875 40.505 A 0.5 0.5 0 0 0 317.41875 40.005 L 302.91875 40.005 A 0.5 0.5 0 0 0 302.41875 40.505 L 302.41875 52.305 Z M 29.05125 52.305 A 0.5 0.5 0 0 0 29.55125 52.805 L 44.05125 52.805 A 0.5 0.5 0 0 0 44.55125 52.305 L 44.55125 40.505 A 0.5 0.5 0 0 0 44.05125 40.005 L 29.55125 40.005 A 0.5 0.5 0 0 0 29.05125 40.505 L 29.05125 52.305 Z M 55.245 52.305 A 0.5 0.5 0 0 0 55.745 52.805 L 70.245 52.805 A 0.5 0.5 0 0 0 70.745 52.305 L 70.745 40.505 A 0.5 0.5 0 0 0 70.245 40.005 L 55.745 40.005 A 0.5 0.5 0 0 0 55.245 40.505 L 55.245 52.305 Z M 29.05125 71.355 A 0.5 0.5 0 0 0 29.55125 71.855 L 44.05125 71.855 A 0.5 0.5 0 0 0 44.55125 71.355 L 44.55125 59.555 A 0.5 0.5 0 0 0 44.05125 59.055 L 29.55125 59.055 A 0.5 0.5 0 0 0 29.05125 59.555 L 29.05125 71.355 Z M 60.0075 71.355 A 0.5 0.5 0 0 0 60.5075 71.855 L 75.0075 71.855 A 0.5 0.5 0 0 0 75.5075 71.355 L 75.5075 59.555 A 0.5 0.5 0 0 0 75.0075 59.055 L 60.5075 59.055 A 0.5 0.5 0 0 0 60.0075 59.555 L 60.0075 71.355 Z M 246.6975 71.355 A 0.5 0.5 0 0 0 247.1975 71.855 L 261.6975 71.855 A 0.5 0.5 0 0 0 262.1975 71.355 L 262.1975 59.555 A 0.5 0.5 0 0 0 261.6975 59.055 L 247.1975 59.055 A 0.5 0.5 0 0 0 246.6975 59.555 L 246.6975 71.355 Z M 265.7475 71.355 A 0.5 0.5 0 0 0 266.2475 71.855 L 280.7475 71.855 A 0.5 0.5 0 0 0 281.2475 71.355 L 281.2475 59.555 A 0.5 0.5 0 0 0 280.7475 59.055 L 266.2475 59.055 A 0.5 0.5 0 0 0 265.7475 59.555 L 265.7475 71.355 Z M 291.94125 71.355 A 0.5 0.5 0 0 0 292.44125 71.855 L 306.94125 71.855 A 0.5 0.5 0 0 0 307.44125 71.355 L 307.44125 59.555 A 0.5 0.5 0 0 0 306.94125 59.055 L 292.44125 59.055 A 0.5 0.5 0 0 0 291.94125 59.555 L 291.94125 71.355 Z M 318.135 71.355 A 0.5 0.5 0 0 0 318.635 71.855 L 333.135 71.855 A 0.5 0.5 0 0 0 333.635 71.355 L 333.635 59.555 A 0.5 0.5 0 0 0 333.135 59.055 L 318.635 59.055 A 0.5 0.5 0 0 0 318.135 59.555 L 318.135 71.355 Z M 21.9075 90.405 A 0.5 0.5 0 0 0 22.4075 90.905 L 36.9075 90.905 A 0.5 0.5 0 0 0 37.4075 90.405 L 37.4075 78.605 A 0.5 0.5 0 0 0 36.9075 78.105 L 22.4075 78.105 A 0.5 0.5 0 0 0 21.9075 78.605 L 21.9075 90.405 Z M 306.705 90.405 A 0.5 0.5 0 0 0 307.205 90.905 L 321.705 90.905 A 0.5 0.5 0 0 0 322.205 90.405 L 322.205 78.605 A 0.5 0.5 0 0 0 321.705 78.105 L 307.205 78.105 A 0.5 0.5 0 0 0 306.705 78.605 L 306.705 90.405 Z M 87.006739 15.084523 A 0.5 0.5 0 0 0 87.391857 15.677552 L 101.574997 18.692272 A 0.5 0.5 0 0 0 102.168027 18.307154 L 104.621385 6.765012 A 0.5 0.5 0 0 0 104.236267 6.171983 L 90.053127 3.157263 A 0.5 0.5 0 0 0 89.460097 3.542381 L 87.006739 15.084523 Z M 105.640451 19.045241 A 0.5 0.5 0 0 0 106.025569 19.63827 L 120.208709 22.65299 A 0.5 0.5 0 0 0 120.801739 22.267872 L 123.255097 10.72573 A 0.5 0.5 0 0 0 122.869979 10.1327 L 108.686838 7.117981 A 0.5 0.5 0 0 0 108.093809 7.503099 L 105.640451 19.045241 Z M 124.274163 23.005959 A 0.5 0.5 0 0 0 124.659281 23.598988 L 138.842421 26.613708 A 0.5 0.5 0 0 0 139.43545 26.22859 L 141.888808 14.686448 A 0.5 0.5 0 0 0 141.50369 14.093418 L 127.32055 11.078699 A 0.5 0.5 0 0 0 126.727521 11.463817 L 124.274163 23.005958 Z M 142.907874 26.966676 A 0.5 0.5 0 0 0 143.292992 27.559706 L 157.476133 30.574425 A 0.5 0.5 0 0 0 158.069162 30.189307 L 160.52252 18.647166 A 0.5 0.5 0 0 0 160.137402 18.054136 L 145.954262 15.039417 A 0.5 0.5 0 0 0 145.361232 15.424535 L 142.907874 26.966676 Z M 74.660851 31.935911 A 0.5 0.5 0 0 0 75.045969 32.52894 L 89.229109 35.54366 A 0.5 0.5 0 0 0 89.822139 35.158542 L 92.275497 23.6164 A 0.5 0.5 0 0 0 91.890379 23.023371 L 77.707239 20.008651 A 0.5 0.5 0 0 0 77.114209 20.393769 L 74.660851 31.935911 Z M 93.294563 35.896629 A 0.5 0.5 0 0 0 93.679681 36.489658 L 107.862821 39.504378 A 0.5 0.5 0 0 0 108.455851 39.11926 L 110.909209 27.577118 A 0.5 0.5 0 0 0 110.524091 26.984088 L 96.340951 23.969369 A 0.5 0.5 0 0 0 95.747921 24.354487 L 93.294563 35.896629 Z M 111.928275 39.857347 A 0.5 0.5 0 0 0 112.313393 40.450376 L 126.496533 43.465096 A 0.5 0.5 0 0 0 127.089563 43.079978 L 129.542921 31.537836 A 0.5 0.5 0 0 0 129.157803 30.944806 L 114.974662 27.930087 A 0.5 0.5 0 0 0 114.381633 28.315205 L 111.928275 39.857346 Z M 130.561987 43.818064 A 0.5 0.5 0 0 0 130.947105 44.411094 L 145.130245 47.425814 A 0.5 0.5 0 0 0 145.723274 47.040696 L 148.176632 35.498554 A 0.5 0.5 0 0 0 147.791514 34.905524 L 133.608374 31.890805 A 0.5 0.5 0 0 0 133.015345 32.275923 L 130.561987 43.818064 Z M 75.358561 51.559802 A 0.5 0.5 0 0 0 75.743679 52.152831 L 89.926819 55.167551 A 0.5 0.5 0 0 0 90.519849 54.782433 L 92.973207 43.240291 A 0.5 0.5 0 0 0 92.588089 42.647261 L 78.404949 39.632542 A 0.5 0.5 0 0 0 77.811919 40.01766 L 75.358561 51.559801 Z M 93.992273 55.520519 A 0.5 0.5 0 0 0 94.377391 56.113549 L 108.560531 59.128269 A 0.5 0.5 0 0 0 109.153561 58.743151 L 111.606919 47.201009 A 0.5 0.5 0 0 0 111.221801 46.607979 L 97.038661 43.59326 A 0.5 0.5 0 0 0 96.445631 43.978378 L 93.992273 55.520519 Z M 112.625985 59.481237 A 0.5 0.5 0 0 0 113.011103 60.074267 L 127.194243 63.088986 A 0.5 0.5 0 0 0 127.787273 62.703868 L 130.240631 51.161727 A 0.5 0.5 0 0 0 129.855513 50.568697 L 115.672372 47.553978 A 0.5 0.5 0 0 0 115.079343 47.939096 L 112.625985 59.481237 Z M 131.259697 63.441955 A 0.5 0.5 0 0 0 131.644815 64.034985 L 145.827955 67.049704 A 0.5 0.5 0 0 0 146.420984 66.664586 L 148.874342 55.122445 A 0.5 0.5 0 0 0 148.489224 54.529415 L 134.306084 51.514696 A 0.5 0.5 0 0 0 133.713055 51.899814 L 131.259697 63.441955 Z M 79.783013 71.975837 A 0.5 0.5 0 0 0 80.168131 72.568867 L 94.351271 75.583586 A 0.5 0.5 0 0 0 94.944301 75.198468 L 97.397659 63.656327 A 0.5 0.5 0 0 0 97.012541 63.063297 L 82.829401 60.048577 A 0.5 0.5 0 0 0 82.236371 60.433695 L 79.783013 71.975837 Z M 98.416725 75.936555 A 0.5 0.5 0 0 0 98.801843 76.529585 L 112.984983 79.544304 A 0.5 0.5 0 0 0 113.578013 79.159186 L 116.031371 67.617044 A 0.5 0.5 0 0 0 115.646253 67.024015 L 101.463113 64.009295 A 0.5 0.5 0 0 0 100.870083 64.394413 L 98.416725 75.936555 Z M 117.050437 79.897273 A 0.5 0.5 0 0 0 117.435555 80.490302 L 131.618695 83.505022 A 0.5 0.5 0 0 0 132.211725 83.119904 L 134.665083 71.577762 A 0.5 0.5 0 0 0 134.279965 70.984733 L 120.096824 67.970013 A 0.5 0.5 0 0 0 119.503795 68.355131 L 117.050437 79.897273 Z M 135.684149 83.857991 A 0.5 0.5 0 0 0 136.069267 84.45102 L 150.252407 87.46574 A 0.5 0.5 0 0 0 150.845436 87.080622 L 153.298794 75.53848 A 0.5 0.5 0 0 0 152.913676 74.945451 L 138.730536 71.930731 A 0.5 0.5 0 0 0 138.137507 72.315849 L 135.684149 83.857991 Z M 109.362977 97.738842 A 0.5 0.5 0 0 0 109.748095 98.331871 L 123.931235 101.346591 A 0.5 0.5 0 0 0 124.524265 100.961473 L 126.977623 89.419331 A 0.5 0.5 0 0 0 126.592505 88.826302 L 112.409365 85.811582 A 0.5 0.5 0 0 0 111.816335 86.1967 L 109.362977 97.738842 Z M 139.64276 104.175008 A 0.5 0.5 0 0 0 140.027878 104.768038 L 154.211018 107.782757 A 0.5 0.5 0 0 0 154.804047 107.397639 L 157.257405 95.855498 A 0.5 0.5 0 0 0 156.872287 95.262468 L 142.689147 92.247748 A 0.5 0.5 0 0 0 142.096118 92.632866 L 139.64276 104.175008 Z M 75.624261 91.541235 A 0.5 0.5 0 0 0 76.009379 92.134264 L 90.192519 95.148984 A 0.5 0.5 0 0 0 90.785549 94.763866 L 93.238907 83.221724 A 0.5 0.5 0 0 0 92.853789 82.628695 L 78.670649 79.613975 A 0.5 0.5 0 0 0 78.077619 79.999093 L 75.624261 91.541235 Z M 173.014378 27.958109 A 0.5 0.5 0 0 0 173.607408 28.343227 L 187.790548 25.328507 A 0.5 0.5 0 0 0 188.175666 24.735478 L 185.722308 13.193336 A 0.5 0.5 0 0 0 185.129278 12.808218 L 170.946138 15.822937 A 0.5 0.5 0 0 0 170.56102 16.415967 L 173.014378 27.958109 Z M 191.64809 23.997391 A 0.5 0.5 0 0 0 192.241119 24.382509 L 206.42426 21.367789 A 0.5 0.5 0 0 0 206.809378 20.77476 L 204.35602 9.232618 A 0.5 0.5 0 0 0 203.76299 8.8475 L 189.57985 11.862219 A 0.5 0.5 0 0 0 189.194732 12.455249 L 191.64809 23.997391 Z M 210.281802 20.036673 A 0.5 0.5 0 0 0 210.874831 20.421791 L 225.057971 17.407071 A 0.5 0.5 0 0 0 225.443089 16.814042 L 222.989731 5.2719 A 0.5 0.5 0 0 0 222.396702 4.886782 L 208.213562 7.901502 A 0.5 0.5 0 0 0 207.828444 8.494531 L 210.281802 20.036673 Z M 228.915513 16.075957 A 0.5 0.5 0 0 0 229.508543 16.461075 L 243.691683 13.446355 A 0.5 0.5 0 0 0 244.076801 12.853326 L 241.623443 1.311184 A 0.5 0.5 0 0 0 241.030414 0.926066 L 226.847273 3.940786 A 0.5 0.5 0 0 0 226.462155 4.533815 L 228.915513 16.075957 Z M 169.52161 48.176108 A 0.5 0.5 0 0 0 170.11464 48.561226 L 184.29778 45.546506 A 0.5 0.5 0 0 0 184.682898 44.953477 L 182.22954 33.411335 A 0.5 0.5 0 0 0 181.63651 33.026217 L 167.45337 36.040937 A 0.5 0.5 0 0 0 167.068252 36.633966 L 169.52161 48.176108 Z M 188.155322 44.21539 A 0.5 0.5 0 0 0 188.748351 44.600508 L 202.931492 41.585789 A 0.5 0.5 0 0 0 203.31661 40.992759 L 200.863252 29.450617 A 0.5 0.5 0 0 0 200.270222 29.065499 L 186.087082 32.080219 A 0.5 0.5 0 0 0 185.701964 32.673248 L 188.155322 44.21539 Z M 206.789034 40.254672 A 0.5 0.5 0 0 0 207.382063 40.63979 L 221.565203 37.625071 A 0.5 0.5 0 0 0 221.950321 37.032041 L 219.496963 25.489899 A 0.5 0.5 0 0 0 218.903934 25.104781 L 204.720794 28.119501 A 0.5 0.5 0 0 0 204.335676 28.71253 L 206.789034 40.254672 Z M 225.422745 36.293954 A 0.5 0.5 0 0 0 226.015775 36.679072 L 240.198915 33.664353 A 0.5 0.5 0 0 0 240.584033 33.071323 L 238.130675 21.529181 A 0.5 0.5 0 0 0 237.537646 21.144063 L 223.354505 24.158783 A 0.5 0.5 0 0 0 222.969387 24.751813 L 225.422745 36.293954 Z M 176.277386 66.215713 A 0.5 0.5 0 0 0 176.870415 66.600831 L 191.053556 63.586112 A 0.5 0.5 0 0 0 191.438674 62.993082 L 188.985316 51.45094 A 0.5 0.5 0 0 0 188.392286 51.065822 L 174.209146 54.080542 A 0.5 0.5 0 0 0 173.824028 54.673571 L 176.277386 66.215713 Z M 194.911098 62.254995 A 0.5 0.5 0 0 0 195.504127 62.640113 L 209.687267 59.625394 A 0.5 0.5 0 0 0 210.072385 59.032364 L 207.619027 47.490222 A 0.5 0.5 0 0 0 207.025998 47.105104 L 192.842858 50.119824 A 0.5 0.5 0 0 0 192.45774 50.712853 L 194.911098 62.254995 Z M 213.544809 58.294277 A 0.5 0.5 0 0 0 214.137839 58.679395 L 228.320979 55.664676 A 0.5 0.5 0 0 0 228.706097 55.071646 L 226.252739 43.529505 A 0.5 0.5 0 0 0 225.65971 43.144387 L 211.476569 46.159106 A 0.5 0.5 0 0 0 211.091451 46.752136 L 213.544809 58.294277 Z M 232.178521 54.333559 A 0.5 0.5 0 0 0 232.771551 54.718677 L 246.954691 51.703958 A 0.5 0.5 0 0 0 247.339809 51.110928 L 244.886451 39.568787 A 0.5 0.5 0 0 0 244.293421 39.183669 L 230.110281 42.198388 A 0.5 0.5 0 0 0 229.725163 42.791418 L 232.178521 54.333559 Z M 171.852932 86.631747 A 0.5 0.5 0 0 0 172.445962 87.016865 L 186.629102 84.002145 A 0.5 0.5 0 0 0 187.01422 83.409116 L 184.560862 71.866974 A 0.5 0.5 0 0 0 183.967832 71.481856 L 169.784692 74.496575 A 0.5 0.5 0 0 0 169.399574 75.089605 L 171.852932 86.631747 Z M 190.486644 82.671029 A 0.5 0.5 0 0 0 191.079673 83.056147 L 205.262814 80.041427 A 0.5 0.5 0 0 0 205.647932 79.448398 L 203.194574 67.906256 A 0.5 0.5 0 0 0 202.601544 67.521138 L 188.418404 70.535857 A 0.5 0.5 0 0 0 188.033286 71.128887 L 190.486644 82.671029 Z M 209.120355 78.710311 A 0.5 0.5 0 0 0 209.713385 79.095429 L 223.896525 76.080709 A 0.5 0.5 0 0 0 224.281643 75.48768 L 221.828285 63.945538 A 0.5 0.5 0 0 0 221.235256 63.56042 L 207.052115 66.57514 A 0.5 0.5 0 0 0 206.666997 67.168169 L 209.120355 78.710311 Z M 227.754067 74.749593 A 0.5 0.5 0 0 0 228.347097 75.134711 L 242.530237 72.119992 A 0.5 0.5 0 0 0 242.915355 71.526962 L 240.461997 59.98482 A 0.5 0.5 0 0 0 239.868967 59.599702 L 225.685827 62.614422 A 0.5 0.5 0 0 0 225.300709 63.207451 L 227.754067 74.749593 Z M 192.118149 101.799831 A 0.5 0.5 0 0 0 192.711178 102.184949 L 206.894318 99.17023 A 0.5 0.5 0 0 0 207.279436 98.5772 L 204.826078 87.035058 A 0.5 0.5 0 0 0 204.233049 86.64994 L 190.049909 89.66466 A 0.5 0.5 0 0 0 189.664791 90.257689 L 192.118149 101.799831 Z M 232.844507 94.116955 A 0.5 0.5 0 0 0 233.437537 94.502073 L 247.620677 91.487353 A 0.5 0.5 0 0 0 248.005795 90.894323 L 245.552437 79.352182 A 0.5 0.5 0 0 0 244.959408 78.967064 L 230.776267 81.981783 A 0.5 0.5 0 0 0 230.391149 82.574813 L 232.844507 94.116955 Z M 124.864572 102.669552 A 0.5 0.5 0 0 0 125.24969 103.262582 L 131.118575 104.510052 A 0.5 0.5 0 0 0 131.711605 104.124934 L 134.622369 90.430868 A 0.5 0.5 0 0 0 134.237251 89.837838 L 128.368365 88.590368 A 0.5 0.5 0 0 0 127.775335 88.975486 L 124.864572 102.669552 Z M 184.930808 104.963292 A 0.5 0.5 0 0 0 185.523838 105.34841 L 191.392724 104.10094 A 0.5 0.5 0 0 0 191.777842 103.507911 L 188.867078 89.813844 A 0.5 0.5 0 0 0 188.274048 89.428726 L 182.405163 90.676196 A 0.5 0.5 0 0 0 182.020045 91.269226 L 184.930808 104.963292 Z M 101.51032 97.705453 A 0.5 0.5 0 0 0 101.895438 98.298483 L 107.764323 99.545953 A 0.5 0.5 0 0 0 108.357353 99.160835 L 111.268116 85.466768 A 0.5 0.5 0 0 0 110.882998 84.873739 L 105.014113 83.626269 A 0.5 0.5 0 0 0 104.421083 84.011387 L 101.51032 97.705453 Z M 208.285061 99.999193 A 0.5 0.5 0 0 0 208.87809 100.384311 L 214.746976 99.136841 A 0.5 0.5 0 0 0 215.132094 98.543811 L 212.22133 84.849745 A 0.5 0.5 0 0 0 211.628301 84.464627 L 205.759415 85.712097 A 0.5 0.5 0 0 0 205.374297 86.305126 L 208.285061 99.999193 Z M 294.73075 53.905 A 0.5 0.5 0 0 0 295.23075 54.405 L 301.23075 54.405 A 0.5 0.5 0 0 0 301.73075 53.905 L 301.73075 39.905 A 0.5 0.5 0 0 0 301.23075 39.405 L 295.23075 39.405 A 0.5 0.5 0 0 0 294.73075 39.905 L 294.73075 53.905 Z M 318.60675 53.905 A 0.5 0.5 0 0 0 319.10675 54.405 L 325.10675 54.405 A 0.5 0.5 0 0 0 325.60675 53.905 L 325.60675 39.905 A 0.5 0.5 0 0 0 325.10675 39.405 L 319.10675 39.405 A 0.5 0.5 0 0 0 318.60675 39.905 L 318.60675 53.905 Z M 21.36325 72.955 A 0.5 0.5 0 0 0 21.86325 73.455 L 27.86325 73.455 A 0.5 0.5 0 0 0 28.36325 72.955 L 28.36325 58.955 A 0.5 0.5 0 0 0 27.86325 58.455 L 21.86325 58.455 A 0.5 0.5 0 0 0 21.36325 58.955 L 21.36325 72.955 Z M 45.23925 72.955 A 0.5 0.5 0 0 0 45.73925 73.455 L 51.73925 73.455 A 0.5 0.5 0 0 0 52.23925 72.955 L 52.23925 58.955 A 0.5 0.5 0 0 0 51.73925 58.455 L 45.73925 58.455 A 0.5 0.5 0 0 0 45.23925 58.955 L 45.23925 72.955 Z" vector-effect="non-scaling-stroke"/></g></svg>